<svg id="Layer_1" xmlns="http://www.w3.org/2000/svg" version="1.1" viewBox="0 0 601.37646 39.13525">
  <defs>
    <style>
      .st0 {
        fill: currentColor;
      }
    </style>
  </defs>
  <path class="st0" d="M42.59668,0h.22363l-.22363,39.02393h-11.05371v-10.66309H15.35254l-4.29883,5.80566v4.85742H0v-13.28711c0-2.75391.81787-5.22949,2.45654-7.4248L13.78955,3.01465c1.48828-2.00977,3.47949-3.01465,5.97363-3.01465h22.8335ZM31.54297,19.87451v-10.38379H11.50049l-.44678.61426v20.65625l6.58789-8.87695c1.00488-1.33984,2.34473-2.00977,4.01953-2.00977h9.88184Z"/>
  <path class="st0" d="M74.58643,0h11.05371v6.75537l-13.34277,17.97656,2.84717,5.08008h10.49561v9.21191h-8.26221l-7.09033-13.67871h-12.95215v13.67871l-11.0542.11133v-3.7959c0-1.41406.42773-2.67969,1.28418-3.79688l11.6123-15.6875h1.1167l-3.51709-6.36426h-10.49609V.27881h8.2627l8.09521,15.57617h11.94727V0Z"/>
  <path class="st0" d="M89.37988,0h11.0542v39.02393l-11.0542.11133V0Z"/>
  <path class="st0" d="M123.6582,0h29.08643v13.28662c0,2.75488-.81934,5.23047-2.45654,7.42578l-11.33301,15.29688c-1.48926,2.00977-3.48047,3.01465-5.97363,3.01465h-29.08643v-13.28711c0-2.75391.81787-5.22949,2.45654-7.4248l11.33301-15.29736c1.48828-2.00977,3.47949-3.01465,5.97363-3.01465ZM141.69043,28.91943V9.49072h-26.29492l-.44678.61426v19.42773h26.35107l.39062-.61328Z"/>
  <path class="st0" d="M189.53516.05566c1.93457,0,3.59131.68896,4.96826,2.06543,1.37695,1.37744,2.06592,3.03418,2.06592,4.96826v32.0459h-11.0542V9.60205h-13.00781l-5.13623,6.92285-.05566-.05566v22.66602h-11.0542V.05566l11.0542-.05566v13.23096l7.92725-10.71875c1.22852-1.63721,2.84766-2.45654,4.85742-2.45654h9.43506Z"/>
  <path class="st0" d="M260.2124,0v9.49072h-10.43945l-.44678.50293v29.03027h-11.0542v-20.20996l9.49072-9.32324h-20.76807V0h33.21777Z"/>
  <path class="st0" d="M268.81055,9.49072l-.44629.61426v12.33789l7.03418-9.49023h16.63672v8.54102h-20.43311l-3.23779,4.41016v3.62891h23.05664l5.13623-6.92188,1.84229.89258-9.71387,13.11914c-1.19141,1.60156-2.7915,2.40137-4.80127,2.40137h-19.54004c-1.93555,0-3.5918-.68848-4.96875-2.06543s-2.06543-3.0332-2.06543-4.96875v-7.75977c0-1.75.521-3.3125,1.56299-4.69043l12.05908-16.30176c.74414-1.0415,1.68359-1.84229,2.81934-2.40039,1.13477-.55859,2.33545-.8374,3.60107-.8374h22.55469v9.49072h-31.09668Z"/>
  <path class="st0" d="M312.8584,9.49072l-.44629.61426v19.42773h23.05664l5.13623-6.92188,1.84229.89258-9.71387,13.11914c-1.19141,1.60156-2.7915,2.40137-4.80127,2.40137h-19.54004c-1.93555,0-3.5918-.68848-4.96875-2.06543s-2.06543-3.0332-2.06543-4.96875v-7.75977c0-1.75.521-3.3125,1.56299-4.69043l12.05908-16.30176c.74414-1.0415,1.68359-1.84229,2.81934-2.40039,1.13477-.55859,2.33545-.8374,3.60107-.8374h22.55469v9.49072h-31.09668Z"/>
  <path class="st0" d="M378.62305,0h11.0542v39.02393l-11.0542.11133v-16.63672h-17.25098l-3.23779,4.41113v12.11426l-11.0542.11133V0h11.0542v23.50342l7.03418-9.54688h13.45459V0Z"/>
  <path class="st0" d="M450.52979,0h11.0542v39.02393l-11.0542.11133v-13.1748l-7.87158,10.66211c-1.19141,1.60156-2.7915,2.40137-4.80127,2.40137h-8.2627c-1.97314,0-3.63818-.68848-4.99658-2.06543-1.35889-1.37695-2.0376-3.0332-2.0376-4.96875v-6.0293l-7.87207,10.66211c-1.22803,1.60156-2.84717,2.40137-4.85693,2.40137h-8.2627c-1.93555,0-3.5918-.68848-4.96826-2.06543-1.37744-1.37695-2.06592-3.0332-2.06592-4.96875V0h11.0542v29.53271h11.83545l5.13623-6.92188V0h10.99805v29.53271h11.83545l5.13623-6.92188V0Z"/>
  <path class="st0" d="M484.80811,0h23.05713l-.22363,39.02393h-11.05371v-10.66309h-16.19043l-4.29883,5.80566v4.85742h-11.05371v-13.28711c0-2.75391.81787-5.22949,2.45654-7.4248l11.33301-15.29736c1.48828-2.00977,3.47949-3.01465,5.97363-3.01465ZM496.58789,19.87451v-10.38379h-20.04248l-.44678.61426v20.65625l6.58789-8.87695c1.00488-1.33984,2.34473-2.00977,4.01953-2.00977h9.88184Z"/>
  <path class="st0" d="M537.11914,28.36084l2.28906,2.12109h14.8501v8.54199h-13.73389l-16.85986-18.36816v18.36816h-11.0542V14.68311h9.88184l5.69434,5.19141h12.44971c1.45166,0,2.67969-.51172,3.68457-1.53516s1.50732-2.24219,1.50732-3.65625-.50244-2.63281-1.50732-3.65723c-1.00488-1.02344-2.23291-1.53516-3.68457-1.53516h-28.02588V0h30.09131c3.9082,0,7.23877,1.37744,9.99365,4.13135,2.79102,2.79102,4.18701,6.17871,4.18701,10.16113-.0376,3.90723-1.49854,7.22852-4.38281,9.96484-2.88477,2.73535-6.2998,4.10352-10.24414,4.10352h-5.13623Z"/>
  <path class="st0" d="M570.27979,9.49072l-.44629.61426v12.33789l7.03418-9.49023h16.63672v8.54102h-20.43311l-3.23779,4.41016v3.62891h23.05664l5.13623-6.92188,1.84229.89258-9.71387,13.11914c-1.19141,1.60156-2.7915,2.40137-4.80127,2.40137h-19.54004c-1.93555,0-3.5918-.68848-4.96875-2.06543s-2.06543-3.0332-2.06543-4.96875v-7.75977c0-1.75.521-3.3125,1.56299-4.69043l12.05908-16.30176c.74414-1.0415,1.68359-1.84229,2.81934-2.40039,1.13477-.55859,2.33545-.8374,3.60107-.8374h22.55469v9.49072h-31.09668Z"/>
</svg>